<svg version="1.2" baseProfile="tiny" id="Calque_1"
	 xmlns="http://www.w3.org/2000/svg" xmlns:xlink="http://www.w3.org/1999/xlink" x="0px" y="0px" viewBox="0 0 200 50"
	 xml:space="preserve">
<g>
	<path fill="#F1F2F2" d="M15.9,7.6h5.6c1.4,0,2.7,0.2,3.9,0.5c1.2,0.3,2.3,0.8,3.2,1.5c0.9,0.7,1.6,1.6,2.2,2.7
		c0.5,1.1,0.8,2.4,0.8,4c0,1.4-0.3,2.6-0.8,3.6c-0.5,1-1.2,1.9-2.1,2.6c-0.9,0.7-1.9,1.3-3,1.6c-1.2,0.4-2.4,0.6-3.6,0.6h-6.1V7.6z
		 M19.7,21.1h1.9c0.9,0,1.7-0.1,2.4-0.3c0.7-0.2,1.4-0.5,1.9-0.9c0.5-0.4,1-0.9,1.3-1.6c0.3-0.7,0.5-1.5,0.5-2.4
		c0-0.8-0.2-1.6-0.5-2.2c-0.3-0.6-0.7-1.1-1.3-1.5c-0.5-0.4-1.1-0.7-1.9-0.9s-1.5-0.3-2.2-0.3h-2.2V21.1z"/>
	<path fill="#F1F2F2" d="M33.2,16.1c0-1.4,0.2-2.6,0.7-3.7s1.1-2,1.9-2.8c0.8-0.8,1.8-1.4,2.9-1.8c1.1-0.4,2.3-0.6,3.7-0.6
		s2.6,0.2,3.7,0.6s2.1,1,2.9,1.8c0.8,0.8,1.5,1.7,1.9,2.8c0.5,1.1,0.7,2.3,0.7,3.7c0,1.4-0.2,2.6-0.7,3.7c-0.5,1.1-1.1,2-1.9,2.8
		c-0.8,0.8-1.8,1.4-2.9,1.8C45,24.8,43.7,25,42.4,25s-2.6-0.2-3.7-0.6c-1.1-0.4-2.1-1-2.9-1.8c-0.8-0.8-1.5-1.7-1.9-2.8
		S33.2,17.5,33.2,16.1z M37.1,16.1c0,0.8,0.1,1.5,0.4,2.2c0.2,0.7,0.6,1.2,1.1,1.7c0.5,0.5,1,0.9,1.7,1.1c0.6,0.3,1.4,0.4,2.2,0.4
		c0.8,0,1.5-0.1,2.2-0.4c0.6-0.3,1.2-0.7,1.7-1.1c0.5-0.5,0.8-1.1,1.1-1.7c0.2-0.7,0.4-1.4,0.4-2.2c0-0.8-0.1-1.5-0.4-2.2
		c-0.2-0.7-0.6-1.3-1.1-1.7c-0.5-0.5-1-0.9-1.7-1.1c-0.6-0.3-1.4-0.4-2.2-0.4c-0.8,0-1.5,0.1-2.2,0.4c-0.6,0.3-1.2,0.7-1.7,1.1
		c-0.5,0.5-0.8,1.1-1.1,1.7C37.3,14.6,37.1,15.3,37.1,16.1z"/>
	<path fill="#F1F2F2" d="M65.2,12c-0.4-0.4-0.8-0.8-1.4-1c-0.5-0.2-1.2-0.4-1.9-0.4c-0.7,0-1.4,0.1-2,0.4c-0.6,0.3-1.1,0.7-1.6,1.1
		c-0.4,0.5-0.8,1.1-1,1.7c-0.2,0.7-0.4,1.4-0.4,2.2c0,0.8,0.1,1.5,0.4,2.2c0.2,0.7,0.6,1.2,1,1.7c0.4,0.5,0.9,0.9,1.5,1.1
		c0.6,0.3,1.2,0.4,1.9,0.4c0.8,0,1.4-0.2,2-0.5c0.6-0.3,1.1-0.8,1.5-1.3l3.1,2.3c-0.7,1-1.6,1.8-2.7,2.2S63.5,25,62.4,25
		c-1.3,0-2.6-0.2-3.7-0.6c-1.1-0.4-2.1-1-2.9-1.8c-0.8-0.8-1.5-1.7-1.9-2.8s-0.7-2.3-0.7-3.7c0-1.4,0.2-2.6,0.7-3.7s1.1-2,1.9-2.8
		c0.8-0.8,1.8-1.4,2.9-1.8c1.1-0.4,2.3-0.6,3.7-0.6c0.5,0,1,0,1.5,0.1s1,0.2,1.5,0.4s1,0.4,1.5,0.8c0.5,0.3,0.9,0.7,1.2,1.2L65.2,12
		z"/>
	<path fill="#F1F2F2" d="M73.9,10.9H69V7.6h13.4v3.3h-4.8v13.7h-3.7V10.9z"/>
	<path fill="#F1F2F2" d="M83.4,16.1c0-1.4,0.2-2.6,0.7-3.7s1.1-2,1.9-2.8c0.8-0.8,1.8-1.4,2.9-1.8c1.1-0.4,2.3-0.6,3.7-0.6
		c1.3,0,2.6,0.2,3.7,0.6c1.1,0.4,2.1,1,2.9,1.8c0.8,0.8,1.5,1.7,1.9,2.8s0.7,2.3,0.7,3.7c0,1.4-0.2,2.6-0.7,3.7s-1.1,2-1.9,2.8
		c-0.8,0.8-1.8,1.4-2.9,1.8c-1.1,0.4-2.3,0.6-3.7,0.6c-1.3,0-2.6-0.2-3.7-0.6c-1.1-0.4-2.1-1-2.9-1.8c-0.8-0.8-1.5-1.7-1.9-2.8
		S83.4,17.5,83.4,16.1z M87.3,16.1c0,0.8,0.1,1.5,0.4,2.2c0.2,0.7,0.6,1.2,1.1,1.7c0.5,0.5,1,0.9,1.7,1.1c0.6,0.3,1.4,0.4,2.2,0.4
		c0.8,0,1.5-0.1,2.2-0.4c0.6-0.3,1.2-0.7,1.7-1.1c0.5-0.5,0.8-1.1,1.1-1.7s0.4-1.4,0.4-2.2c0-0.8-0.1-1.5-0.4-2.2
		c-0.2-0.7-0.6-1.3-1.1-1.7c-0.5-0.5-1-0.9-1.7-1.1c-0.6-0.3-1.4-0.4-2.2-0.4c-0.8,0-1.5,0.1-2.2,0.4c-0.6,0.3-1.2,0.7-1.7,1.1
		c-0.5,0.5-0.8,1.1-1.1,1.7C87.4,14.6,87.3,15.3,87.3,16.1z"/>
	<path fill="#F1F2F2" d="M104.3,7.6h6.6c0.9,0,1.7,0.1,2.5,0.3c0.8,0.2,1.5,0.4,2,0.8s1,0.9,1.4,1.6c0.3,0.7,0.5,1.5,0.5,2.5
		c0,1.2-0.3,2.2-0.9,3.1s-1.5,1.4-2.7,1.6l4.3,7.2h-4.5l-3.6-6.8H108v6.8h-3.7V7.6z M108,14.6h2.2c0.3,0,0.7,0,1.1,0s0.7-0.1,1-0.2
		s0.6-0.3,0.8-0.6c0.2-0.3,0.3-0.6,0.3-1.1c0-0.4-0.1-0.8-0.3-1c-0.2-0.3-0.4-0.5-0.7-0.6c-0.3-0.1-0.6-0.2-0.9-0.3
		c-0.4,0-0.7-0.1-1-0.1H108V14.6z"/>
	<path fill="#F1F2F2" d="M119.9,7.6h6.6c0.9,0,1.7,0.1,2.5,0.3c0.8,0.2,1.5,0.4,2,0.8s1,0.9,1.4,1.6c0.3,0.7,0.5,1.5,0.5,2.5
		c0,1.2-0.3,2.2-0.9,3.1s-1.5,1.4-2.7,1.6l4.3,7.2H129l-3.6-6.8h-1.8v6.8h-3.7V7.6z M123.6,14.6h2.2c0.3,0,0.7,0,1.1,0
		s0.7-0.1,1-0.2s0.6-0.3,0.8-0.6c0.2-0.3,0.3-0.6,0.3-1.1c0-0.4-0.1-0.8-0.3-1c-0.2-0.3-0.4-0.5-0.7-0.6c-0.3-0.1-0.6-0.2-0.9-0.3
		c-0.4,0-0.7-0.1-1-0.1h-2.4V14.6z"/>
	<path fill="#F1F2F2" d="M133.6,7.6h4.1l2.7,10.9h0L144,7.6h3.5l3.5,11.2h0l2.9-11.2h3.8l-5,17h-3.3l-3.7-11.8h0l-3.7,11.8h-3.2
		L133.6,7.6z"/>
	<path fill="#F1F2F2" d="M159.6,7.6h11.5v3.5h-7.8v3.2h7.4v3.5h-7.4v3.5h8.2v3.5h-12V7.6z"/>
	<path fill="#F1F2F2" d="M174.5,7.6h6.3c0.7,0,1.5,0.1,2.2,0.2s1.4,0.3,2,0.6s1.1,0.7,1.4,1.3s0.6,1.3,0.6,2.2c0,1-0.3,1.8-0.8,2.4
		c-0.5,0.6-1.2,1.1-2.1,1.4v0c0.6,0.1,1.1,0.2,1.5,0.5c0.5,0.2,0.8,0.5,1.2,0.9s0.6,0.8,0.8,1.3s0.3,1,0.3,1.5
		c0,0.9-0.2,1.6-0.6,2.2s-0.9,1.1-1.5,1.5c-0.6,0.4-1.3,0.6-2.1,0.8c-0.8,0.2-1.5,0.2-2.3,0.2h-7V7.6z M178.3,14.4h2.7
		c0.3,0,0.6,0,0.9-0.1c0.3-0.1,0.5-0.2,0.8-0.3c0.2-0.1,0.4-0.3,0.5-0.6c0.1-0.2,0.2-0.5,0.2-0.9c0-0.4-0.1-0.6-0.2-0.9
		s-0.3-0.4-0.6-0.5c-0.2-0.1-0.5-0.2-0.8-0.3c-0.3-0.1-0.6-0.1-0.9-0.1h-2.5V14.4z M178.3,21.4h3.4c0.3,0,0.6,0,0.9-0.1
		c0.3-0.1,0.6-0.2,0.8-0.3c0.2-0.2,0.4-0.4,0.6-0.6c0.2-0.3,0.2-0.6,0.2-0.9c0-0.4-0.1-0.7-0.3-1c-0.2-0.2-0.5-0.4-0.8-0.6
		c-0.3-0.1-0.6-0.2-1-0.3c-0.4,0-0.7-0.1-1-0.1h-2.8V21.4z"/>
</g>
<g>
	<path fill="#FF9900" d="M15.9,29.4h2.6c0.7,0,1.4,0.1,1.9,0.3c0.5,0.2,0.9,0.4,1.3,0.7c0.3,0.3,0.6,0.6,0.8,0.9
		c0.2,0.3,0.3,0.7,0.4,1c0.1,0.3,0.2,0.6,0.2,0.8s0,0.4,0,0.5c0,0.1,0,0.3,0,0.5S23,34.7,22.9,35c-0.1,0.3-0.2,0.6-0.4,1
		c-0.2,0.3-0.5,0.7-0.8,0.9c-0.3,0.3-0.8,0.5-1.3,0.7c-0.5,0.2-1.1,0.3-1.9,0.3h-2.6V29.4z M16.7,37.1h1.6c0.6,0,1.1-0.1,1.6-0.2
		c0.5-0.1,0.9-0.4,1.3-0.6c0.4-0.3,0.6-0.7,0.9-1.1c0.2-0.4,0.3-1,0.3-1.6c0-0.6-0.1-1.1-0.3-1.6s-0.5-0.8-0.9-1.1
		c-0.4-0.3-0.8-0.5-1.3-0.6c-0.5-0.1-1-0.2-1.6-0.2h-1.6V37.1z"/>
	<path fill="#FF9900" d="M26.1,29.4h5.2v0.7h-4.4v3H31v0.7h-4.1v3.3h4.6v0.7h-5.4V29.4z"/>
	<path fill="#FF9900" d="M33.2,29.4h0.9l2.7,7.5l2.8-7.5h0.8l-3.2,8.5h-0.8L33.2,29.4z"/>
	<path fill="#FF9900" d="M42.7,29.4h5.2v0.7h-4.4v3h4.1v0.7h-4.1v3.3h4.6v0.7h-5.4V29.4z"/>
	<path fill="#FF9900" d="M51,29.4h0.8v7.8h4v0.7H51V29.4z"/>
	<path fill="#FF9900" d="M57.7,33.6c0-0.6,0.1-1.2,0.3-1.8s0.5-1,0.9-1.4c0.4-0.4,0.8-0.7,1.4-0.9c0.5-0.2,1.1-0.3,1.8-0.3
		s1.2,0.1,1.8,0.3c0.5,0.2,1,0.5,1.4,0.9c0.4,0.4,0.7,0.9,0.9,1.4c0.2,0.5,0.3,1.1,0.3,1.8c0,0.6-0.1,1.2-0.3,1.8
		c-0.2,0.5-0.5,1-0.9,1.4c-0.4,0.4-0.8,0.7-1.4,0.9s-1.1,0.3-1.8,0.3s-1.2-0.1-1.8-0.3s-1-0.5-1.4-0.9c-0.4-0.4-0.7-0.9-0.9-1.4
		S57.7,34.3,57.7,33.6z M58.5,33.6c0,0.5,0.1,1,0.3,1.5c0.2,0.5,0.4,0.9,0.7,1.2s0.7,0.6,1.1,0.8c0.4,0.2,0.9,0.3,1.5,0.3
		c0.6,0,1.1-0.1,1.5-0.3c0.4-0.2,0.8-0.5,1.1-0.8s0.6-0.7,0.7-1.2s0.3-0.9,0.3-1.5c0-0.5-0.1-1-0.3-1.5S65,31.3,64.7,31
		s-0.7-0.6-1.1-0.8c-0.4-0.2-0.9-0.3-1.5-0.3c-0.6,0-1,0.1-1.5,0.3c-0.4,0.2-0.8,0.5-1.1,0.8s-0.6,0.7-0.7,1.2
		C58.6,32.6,58.5,33.1,58.5,33.6z"/>
	<path fill="#FF9900" d="M69.4,29.4h2.4c0.3,0,0.6,0,0.9,0.1c0.3,0.1,0.6,0.2,0.9,0.4c0.3,0.2,0.5,0.4,0.7,0.7s0.3,0.7,0.3,1.1
		c0,0.4-0.1,0.7-0.2,1c-0.1,0.3-0.3,0.5-0.6,0.7c-0.2,0.2-0.5,0.3-0.8,0.4s-0.6,0.1-1,0.1h-1.8v4h-0.8V29.4z M70.2,33.1H72
		c0.2,0,0.4,0,0.7-0.1s0.4-0.1,0.6-0.3s0.3-0.3,0.4-0.5c0.1-0.2,0.2-0.4,0.2-0.7c0-0.3-0.1-0.5-0.2-0.7s-0.2-0.3-0.4-0.5
		c-0.2-0.1-0.4-0.2-0.6-0.3c-0.2-0.1-0.4-0.1-0.7-0.1h-1.8V33.1z"/>
	<path fill="#FF9900" d="M77.5,29.4h5.2v0.7h-4.4v3h4.1v0.7h-4.1v3.3h4.6v0.7h-5.4V29.4z"/>
	<path fill="#FF9900" d="M85.8,29.4h2.2c0.1,0,0.3,0,0.5,0s0.4,0,0.6,0.1c0.2,0,0.5,0.1,0.7,0.2c0.2,0.1,0.4,0.2,0.6,0.4
		c0.2,0.2,0.3,0.4,0.5,0.6c0.1,0.3,0.2,0.6,0.2,0.9c0,0.4-0.1,0.7-0.2,1c-0.1,0.3-0.3,0.5-0.5,0.6c-0.2,0.2-0.4,0.3-0.7,0.4
		c-0.3,0.1-0.5,0.1-0.7,0.2l2.5,4.1h-0.9l-2.4-4h-1.5v4h-0.8V29.4z M86.6,33.1h1.7c0.4,0,0.8-0.1,1-0.2c0.3-0.1,0.5-0.2,0.6-0.4
		c0.1-0.2,0.2-0.3,0.3-0.5c0.1-0.2,0.1-0.3,0.1-0.5c0-0.1,0-0.3-0.1-0.5c-0.1-0.2-0.1-0.3-0.3-0.5c-0.1-0.2-0.3-0.3-0.6-0.4
		s-0.6-0.2-1-0.2h-1.7V33.1z"/>
	<path fill="#F1F2F2" d="M98.5,29.4h5.1v0.7h-4.3v3h4v0.7h-4v4h-0.8V29.4z"/>
	<path fill="#F1F2F2" d="M112.4,34.6c0,0.5-0.1,0.9-0.2,1.3c-0.1,0.4-0.3,0.8-0.5,1.1c-0.2,0.3-0.6,0.6-1,0.8
		c-0.4,0.2-0.9,0.3-1.5,0.3c-0.6,0-1.1-0.1-1.5-0.3c-0.4-0.2-0.7-0.4-1-0.8c-0.2-0.3-0.4-0.7-0.5-1.1c-0.1-0.4-0.2-0.9-0.2-1.3v-5.2
		h0.8v5c0,0.3,0,0.6,0.1,1s0.2,0.7,0.3,1s0.4,0.5,0.7,0.7c0.3,0.2,0.7,0.3,1.2,0.3s0.9-0.1,1.2-0.3c0.3-0.2,0.5-0.4,0.7-0.7
		s0.3-0.6,0.3-1c0.1-0.3,0.1-0.7,0.1-1v-5h0.8V34.6z"/>
	<path fill="#F1F2F2" d="M115.8,29.4h0.8v7.8h4v0.7h-4.8V29.4z"/>
	<path fill="#F1F2F2" d="M123,29.4h0.8v7.8h4v0.7H123V29.4z"/>
	<path fill="#F1F2F2" d="M130.4,36.3c0.2,0.4,0.5,0.6,0.8,0.8c0.3,0.2,0.7,0.3,1.1,0.3c0.3,0,0.5,0,0.7-0.1c0.2-0.1,0.4-0.2,0.6-0.3
		c0.2-0.1,0.3-0.3,0.4-0.5c0.1-0.2,0.2-0.4,0.2-0.7c0-0.3-0.1-0.5-0.2-0.7s-0.3-0.3-0.5-0.5s-0.4-0.2-0.7-0.3
		c-0.3-0.1-0.5-0.2-0.8-0.3c-0.3-0.1-0.5-0.2-0.8-0.3c-0.3-0.1-0.5-0.3-0.7-0.4s-0.4-0.4-0.5-0.7c-0.1-0.3-0.2-0.6-0.2-1
		c0-0.4,0.1-0.7,0.2-1c0.1-0.3,0.3-0.5,0.6-0.7c0.3-0.2,0.5-0.3,0.9-0.4c0.3-0.1,0.7-0.1,1-0.1c0.5,0,0.9,0.1,1.3,0.2
		c0.4,0.2,0.7,0.4,1,0.8l-0.7,0.5c-0.2-0.3-0.4-0.5-0.7-0.6c-0.3-0.1-0.6-0.2-1-0.2c-0.3,0-0.5,0-0.7,0.1c-0.2,0.1-0.4,0.2-0.6,0.3
		c-0.2,0.1-0.3,0.3-0.4,0.5c-0.1,0.2-0.2,0.4-0.2,0.7c0,0.4,0.1,0.8,0.3,1c0.2,0.2,0.5,0.4,0.8,0.5s0.7,0.2,1.1,0.3
		c0.4,0.1,0.7,0.2,1.1,0.4c0.3,0.2,0.6,0.4,0.8,0.7s0.3,0.7,0.3,1.2c0,0.4-0.1,0.7-0.2,1c-0.1,0.3-0.3,0.5-0.6,0.8s-0.5,0.4-0.8,0.5
		c-0.3,0.1-0.7,0.2-1,0.2c-0.6,0-1.1-0.1-1.5-0.3c-0.5-0.2-0.9-0.5-1.2-1L130.4,36.3z"/>
	<path fill="#F1F2F2" d="M139.9,30.1H137v-0.7h6.6v0.7h-2.9v7.8h-0.8V30.1z"/>
	<path fill="#F1F2F2" d="M147.9,29.4h0.8l3.6,8.5h-0.9l-0.9-2.3H146l-1,2.3h-0.8L147.9,29.4z M148.3,30.2l-2,4.7h3.9L148.3,30.2z"/>
	<path fill="#F1F2F2" d="M161.7,36.5c-0.4,0.6-0.9,0.9-1.4,1.2c-0.5,0.2-1.1,0.4-1.7,0.4c-0.6,0-1.2-0.1-1.8-0.3s-1-0.5-1.4-0.9
		c-0.4-0.4-0.7-0.9-0.9-1.4c-0.2-0.5-0.3-1.1-0.3-1.8c0-0.6,0.1-1.2,0.3-1.8c0.2-0.5,0.5-1,0.9-1.4c0.4-0.4,0.8-0.7,1.4-0.9
		c0.5-0.2,1.1-0.3,1.8-0.3c0.6,0,1.1,0.1,1.6,0.3s0.9,0.5,1.3,1l-0.6,0.5c-0.3-0.4-0.6-0.7-1-0.9c-0.4-0.2-0.8-0.3-1.3-0.3
		c-0.6,0-1,0.1-1.5,0.3c-0.4,0.2-0.8,0.5-1.1,0.8c-0.3,0.3-0.6,0.7-0.7,1.2s-0.3,0.9-0.3,1.5c0,0.5,0.1,1,0.3,1.5s0.4,0.9,0.7,1.2
		c0.3,0.3,0.7,0.6,1.1,0.8c0.4,0.2,0.9,0.3,1.5,0.3c0.2,0,0.4,0,0.7-0.1c0.2-0.1,0.5-0.1,0.7-0.2c0.2-0.1,0.4-0.2,0.6-0.4
		c0.2-0.2,0.4-0.4,0.5-0.6L161.7,36.5z"/>
	<path fill="#F1F2F2" d="M164.4,29.4h0.8v3.7h0.1l4.1-3.7h1.1l-4.3,3.9l4.5,4.6h-1.1l-4.3-4.4h-0.1v4.4h-0.8V29.4z"/>
	<path fill="#FF9900" d="M180.7,35.4c0,0.3,0,0.5-0.1,0.9c0,0.3-0.1,0.6-0.3,0.9c-0.2,0.3-0.4,0.5-0.7,0.7c-0.3,0.2-0.7,0.3-1.3,0.3
		c-0.6,0-1.1-0.2-1.5-0.5c-0.4-0.3-0.6-0.7-0.7-1.3l0.8-0.1c0.2,0.8,0.7,1.2,1.4,1.2c0.3,0,0.5,0,0.7-0.1c0.2-0.1,0.4-0.2,0.5-0.4
		c0.1-0.2,0.2-0.3,0.3-0.6c0.1-0.2,0.1-0.5,0.1-0.7v-6.2h0.8V35.4z"/>
	<path fill="#FF9900" d="M184.4,36.3c0.2,0.4,0.5,0.6,0.8,0.8c0.3,0.2,0.7,0.3,1.1,0.3c0.3,0,0.5,0,0.7-0.1c0.2-0.1,0.4-0.2,0.6-0.3
		c0.2-0.1,0.3-0.3,0.4-0.5c0.1-0.2,0.2-0.4,0.2-0.7c0-0.3-0.1-0.5-0.2-0.7s-0.3-0.3-0.5-0.5s-0.4-0.2-0.7-0.3
		c-0.3-0.1-0.5-0.2-0.8-0.3c-0.3-0.1-0.5-0.2-0.8-0.3c-0.3-0.1-0.5-0.3-0.7-0.4s-0.4-0.4-0.5-0.7c-0.1-0.3-0.2-0.6-0.2-1
		c0-0.4,0.1-0.7,0.2-1c0.1-0.3,0.3-0.5,0.6-0.7c0.3-0.2,0.5-0.3,0.9-0.4c0.3-0.1,0.7-0.1,1-0.1c0.5,0,0.9,0.1,1.3,0.2
		c0.4,0.2,0.7,0.4,1,0.8l-0.7,0.5c-0.2-0.3-0.4-0.5-0.7-0.6c-0.3-0.1-0.6-0.2-1-0.2c-0.3,0-0.5,0-0.7,0.1c-0.2,0.1-0.4,0.2-0.6,0.3
		c-0.2,0.1-0.3,0.3-0.4,0.5c-0.1,0.2-0.2,0.4-0.2,0.7c0,0.4,0.1,0.8,0.3,1c0.2,0.2,0.5,0.4,0.8,0.5s0.7,0.2,1.1,0.3
		c0.4,0.1,0.7,0.2,1.1,0.4c0.3,0.2,0.6,0.4,0.8,0.7s0.3,0.7,0.3,1.2c0,0.4-0.1,0.7-0.2,1c-0.1,0.3-0.3,0.5-0.6,0.8s-0.5,0.4-0.8,0.5
		c-0.3,0.1-0.7,0.2-1,0.2c-0.6,0-1.1-0.1-1.5-0.3c-0.5-0.2-0.9-0.5-1.2-1L184.4,36.3z"/>
</g>
</svg>